<svg width="38" height="38" viewBox="0 0 38 38" fill="none" xmlns="http://www.w3.org/2000/svg">
<g clip-path="url(#clip0_208_87)">
<path d="M30.6375 15.8968C30.1057 13.2015 28.6545 10.7745 26.532 9.0303C24.4095 7.28608 21.7473 6.33288 19 6.3335C14.4242 6.3335 10.45 8.93016 8.47083 12.7302C6.1437 12.9816 3.99159 14.0842 2.42802 15.8261C0.864454 17.5679 -0.000271861 19.8262 6.41135e-08 22.1668C6.41135e-08 27.4077 4.25917 31.6668 9.5 31.6668H30.0833C34.4533 31.6668 38 28.1202 38 23.7502C38 19.5702 34.7542 16.1818 30.6375 15.8968ZM26.9167 20.5835L19 28.5002L11.0833 20.5835H15.8333V14.2502H22.1667V20.5835H26.9167Z" fill="#FFCC00"/>
</g>
<defs>
<clipPath id="clip0_208_87">
<rect width="38" height="38" fill="white"/>
</clipPath>
</defs>
</svg>
