<svg width="134" height="188" viewBox="0 0 134 188" fill="none" xmlns="http://www.w3.org/2000/svg">
<path d="M25.9066 2.44448C28.2506 0.856622 31.0861 0 33.998 0C36.9099 0 39.7454 0.856622 42.0894 2.44448L128.431 60.9737C138.649 67.9086 133.867 82.5138 121.703 83.5331H-53.7069C-65.8712 82.5138 -70.6442 67.9086 -60.4345 60.9737L25.9157 2.44448H25.9066ZM33.998 58.4754C37.6148 58.4754 41.0835 57.155 43.6409 54.8046C46.1984 52.4542 47.6351 49.2664 47.6351 45.9424C47.6351 42.6184 46.1984 39.4306 43.6409 37.0802C41.0835 34.7298 37.6148 33.4094 33.998 33.4094C30.3812 33.4094 26.9126 34.7298 24.3551 37.0802C21.7976 39.4306 20.3609 42.6184 20.3609 45.9424C20.3609 49.2664 21.7976 52.4542 24.3551 54.8046C26.9126 57.155 30.3812 58.4754 33.998 58.4754ZM84.0008 91.8968H106.72V142.029H83.9917V91.8968H84.0008ZM65.818 142.029V91.8968H43.0894V142.029H65.818ZM24.9066 142.037V91.9052H2.17805V142.037H24.9066ZM-15.9957 142.037V91.9052H-38.7242V142.037H-15.9957ZM-36.4514 150.393C-44.2877 150.393 -51.8032 153.254 -57.3443 158.346C-62.8855 163.439 -65.9985 170.346 -65.9985 177.547V181.725C-65.9961 183.387 -65.2772 184.981 -63.9993 186.157C-62.7213 187.333 -60.9884 187.996 -59.1799 188H127.167C128.975 188 130.71 187.34 131.988 186.165C133.267 184.989 133.985 183.395 133.985 181.733V177.556C133.985 170.354 130.872 163.447 125.331 158.354C119.79 153.262 112.275 150.401 104.438 150.401H-36.4423L-36.4514 150.393Z" fill="#595F75" fill-opacity="0.5"/>
</svg>
