<svg width="131" height="153" viewBox="0 0 131 153" fill="none" xmlns="http://www.w3.org/2000/svg">
<path d="M53.3782 9.41667C61.7116 3.41667 71.3782 0.416666 82.2949 0.416666C88.2949 0.416666 94.8782 2 102.045 5.33333C109.212 8.58333 114.878 12.4167 119.045 16.8333C127.628 27.5 131.212 39.9167 129.962 54.0833C128.628 68.25 123.962 79.3333 115.878 87.1667L52.6282 150.417C51.0449 152 49.0449 152.75 46.7116 152.75C44.3782 152.75 42.4616 152 40.8782 150.417C40.1086 149.657 39.5041 148.747 39.1025 147.744C38.701 146.74 38.5112 145.664 38.5449 144.583C38.5449 142.25 39.2949 140.25 40.8782 138.667L79.1282 100.417C81.2116 98.5833 81.2116 96.6667 79.1282 94.5833C77.0449 92.5 75.1282 92.5 73.2949 94.5833L35.0449 132.833C34.2736 133.61 33.3496 134.219 32.3312 134.62C31.3128 135.022 30.2222 135.208 29.1282 135.167C26.7949 135.167 24.8782 134.417 23.2949 132.833C22.5253 132.074 21.9207 131.164 21.5192 130.16C21.1177 129.156 20.9279 128.081 20.9616 127C20.9616 124.667 21.7116 122.667 23.2949 121.083L61.5449 82.8333C63.7949 80.75 63.7949 78.6667 61.5449 76.5833C59.6282 74.5 57.7949 74.5 55.7116 76.5833L17.4616 115.25C16.6816 116.015 15.756 116.616 14.7397 117.016C13.7234 117.417 12.6371 117.61 11.5449 117.583C9.21158 117.583 7.21158 116.833 5.46158 115.25C3.79491 113.667 2.96158 111.75 2.96158 109.417C2.96158 107.083 3.87825 105 5.71158 103.167L44.0449 64.8333C46.1282 62.75 46.1282 60.8333 44.0449 59C41.9616 57.1667 39.9616 57.1667 38.1282 59L-0.538421 97.4167C-2.37175 99.0833 -4.28842 100 -6.37176 100C-8.70509 100 -10.7051 99.1667 -12.2051 97.4167C-13.7884 95.75 -14.6218 93.75 -14.6218 91.4167C-14.6218 89.0833 -13.7884 87.1667 -12.2051 85.5833C13.2949 59.9167 29.0449 44.4167 35.0449 38.6667L64.7116 68C67.9616 71.0833 71.7116 72.6667 76.2949 72.6667C82.1282 72.6667 86.7116 70.3333 90.1282 65.6667C92.4616 62.25 93.2949 58.5 92.6282 54.3333C91.9616 50.1667 90.2116 46.6667 87.3782 43.75L53.3782 9.41667M70.5449 62.1667L35.0449 26.5833L-23.9551 85.5833C-30.9551 78.5 -34.9551 67.6667 -35.8718 52.9167C-36.7884 38.25 -32.7884 25.5 -23.9551 14.8333C-14.0384 5 -2.20509 0 11.5449 0C25.3782 0 37.1282 5 46.7116 14.8333L82.2949 50.4167C83.8782 52 84.6282 53.9167 84.6282 56.25C84.6282 58.5833 83.8782 60.5833 82.2949 62.1667C80.7116 63.6667 78.7949 64.5 76.2949 64.5C74.0449 64.5 72.1282 63.6667 70.5449 62.1667V62.1667Z" fill="#595F75" fill-opacity="0.5"/>
</svg>
