<svg width="33" height="33" viewBox="0 0 33 33" fill="none" xmlns="http://www.w3.org/2000/svg">
<path d="M16.5 5.5C22.5651 5.5 27.5 10.4349 27.5 16.5C27.5 22.5651 22.5651 27.5 16.5 27.5C10.4349 27.5 5.5 22.5651 5.5 16.5C5.5 10.4349 10.4349 5.5 16.5 5.5ZM16.5 2.75C8.90588 2.75 2.75 8.90588 2.75 16.5C2.75 24.0941 8.90588 30.25 16.5 30.25C24.0941 30.25 30.25 24.0941 30.25 16.5C30.25 8.90588 24.0941 2.75 16.5 2.75ZM21.725 21.175L17.875 16.0421V9.625H15.125V16.9579L19.525 22.8236L21.725 21.175V21.175Z" fill="#FFCC00"/>
</svg>
