<svg width="150" height="160" viewBox="0 0 150 160" fill="none" xmlns="http://www.w3.org/2000/svg">
<path d="M60 40C60 62.0937 42.0937 80 20 80C-2.09375 80 -20 62.0937 -20 40C-20 17.9063 -2.09375 0 20 0C42.0937 0 60 17.9063 60 40ZM-50 150.719C-50 119.937 -25.0625 95 5.71875 95H34.2813C65.0625 95 90 119.937 90 150.719C90 155.844 85.8437 160 80.7187 160H-40.7187C-45.8437 160 -50 155.844 -50 150.719ZM140.406 160H97.3125C99 157.063 100 153.656 100 150V147.5C100 128.531 91.5313 111.5 78.1875 100.063C78.9375 100.031 79.6562 100 80.4062 100H99.5938C127.438 100 150 122.562 150 150.406C150 155.719 145.687 160 140.406 160ZM85 80C75.3125 80 66.5625 76.0625 60.2188 69.7188C66.375 61.4063 70 51.125 70 40C70 31.625 67.9375 23.7188 64.2813 16.7813C70.0938 12.5313 77.25 10 85 10C104.344 10 120 25.6562 120 45C120 64.3438 104.344 80 85 80Z" fill="#595F75" fill-opacity="0.5"/>
</svg>
